<?xml version="1.0" encoding="UTF-8" standalone="no"?>
<svg
   xmlns:dc="http://purl.org/dc/elements/1.1/"
   xmlns:cc="http://creativecommons.org/ns#"
   xmlns:rdf="http://www.w3.org/1999/02/22-rdf-syntax-ns#"
   xmlns:svg="http://www.w3.org/2000/svg"
   xmlns="http://www.w3.org/2000/svg"
   xmlns:sodipodi="http://sodipodi.sourceforge.net/DTD/sodipodi-0.dtd"
   xmlns:inkscape="http://www.inkscape.org/namespaces/inkscape"
   width="32"
   height="28.799999"
   viewBox="0 0 8.4666667 7.62"
   version="1.1"
   id="svg8"
   inkscape:version="1.0.2 (1.0.2+r75+1)"
   sodipodi:docname="camera.svg">
  <defs
     id="defs2">
    <symbol
       id="symbol86478"
       viewBox="0 0 20 20">
      <title
         id="title1499">camera</title>
      <path
         d="M 6,5 V 3 H 3 V 5 Z M 18,15 V 4 H 9 L 7,6 H 2 v 9 z M 11,7 c 1.66,0 3,1.34 3,3 0,1.66 -1.34,3 -3,3 C 9.34,13 8,11.66 8,10 8,8.34 9.34,7 11,7 Z"
         id="path1501" />
    </symbol>
    <symbol
       viewBox="0 0 24 24"
       id="ic_insert_photo_24px">
      <path
         d="M 21,19 V 5 C 21,3.9 20.1,3 19,3 H 5 C 3.9,3 3,3.9 3,5 v 14 c 0,1.1 0.9,2 2,2 h 14 c 1.1,0 2,-0.9 2,-2 z M 8.5,13.5 11,16.51 14.5,12 19,18 H 5 Z"
         id="path85043" />
    </symbol>
    <symbol
       viewBox="0 0 24 24"
       id="ic_camera_alt_24px">
      <circle
         cx="12"
         cy="12"
         r="3.2"
         id="circle85681" />
      <path
         d="M 9,2 7.17,4 H 4 C 2.9,4 2,4.9 2,6 v 12 c 0,1.1 0.9,2 2,2 h 16 c 1.1,0 2,-0.9 2,-2 V 6 C 22,4.9 21.1,4 20,4 H 16.83 L 15,2 Z m 3,15 C 9.24,17 7,14.76 7,12 7,9.24 9.24,7 12,7 c 2.76,0 5,2.24 5,5 0,2.76 -2.24,5 -5,5 z"
         id="path85683" />
    </symbol>
  </defs>
  <sodipodi:namedview
     id="base"
     pagecolor="#ffffff"
     bordercolor="#666666"
     borderopacity="1.0"
     inkscape:pageopacity="0.0"
     inkscape:pageshadow="2"
     inkscape:zoom="8"
     inkscape:cx="51.559817"
     inkscape:cy="24.916373"
     inkscape:document-units="px"
     inkscape:current-layer="layer1"
     showgrid="false"
     units="px"
     inkscape:document-rotation="0"
     fit-margin-top="0"
     fit-margin-left="0"
     fit-margin-right="0"
     fit-margin-bottom="0" />
  <metadata
     id="metadata5">
    <rdf:RDF>
      <cc:Work
         rdf:about="">
        <dc:format>image/svg+xml</dc:format>
        <dc:type
           rdf:resource="http://purl.org/dc/dcmitype/StillImage" />
        <dc:title></dc:title>
        <dc:creator>
          <cc:Agent>
            <dc:title>Artur S</dc:title>
          </cc:Agent>
        </dc:creator>
      </cc:Work>
    </rdf:RDF>
  </metadata>
  <g
     inkscape:label="Layer 1"
     inkscape:groupmode="layer"
     id="layer1"
     transform="translate(-126.15919,-202.45632)"
     style="display:inline">
    <g
       id="camera"
       style="fill:#ffffff;stroke:none;fill-opacity:0.26878345"
       transform="matrix(0.42333334,0,0,0.42333334,125.31252,201.60965)">
      <path
         id="camera_in"
         d="M 15.2,12 A 3.2,3.2 0 0 1 12,15.2 3.2,3.2 0 0 1 8.8,12 3.2,3.2 0 0 1 12,8.8 3.2,3.2 0 0 1 15.2,12 Z"
         style="fill:#ffffff;fill-opacity:0.26878345" />
      <path
         d="M 9,2 7.17,4 H 4 C 2.9,4 2,4.9 2,6 v 12 c 0,1.1 0.9,2 2,2 h 16 c 1.1,0 2,-0.9 2,-2 V 6 C 22,4.9 21.1,4 20,4 H 16.83 L 15,2 Z m 3,15 C 9.24,17 7,14.76 7,12 7,9.24 9.24,7 12,7 c 2.76,0 5,2.24 5,5 0,2.76 -2.24,5 -5,5 z"
         id="camera_out"
         style="fill:#ffffff;fill-opacity:0.26878345" />
    </g>
  </g>
</svg>
