<?xml version="1.0" encoding="UTF-8"?>
<svg width="32" height="28.8" version="1.1" viewBox="0 0 8.4667 7.62" xmlns="http://www.w3.org/2000/svg">
 <g transform="translate(-126.16 -202.46)">
  <g id="camera" transform="matrix(.42333 0 0 .42333 125.31 201.61)" fill="#fff" fill-opacity=".26878">
   <path id="camera_in" d="m15.2 12a3.2 3.2 0 0 1-3.2 3.2 3.2 3.2 0 0 1-3.2-3.2 3.2 3.2 0 0 1 3.2-3.2 3.2 3.2 0 0 1 3.2 3.2z"/>
   <path id="camera_out" d="m9 2-1.83 2h-3.17c-1.1 0-2 0.9-2 2v12c0 1.1 0.9 2 2 2h16c1.1 0 2-0.9 2-2v-12c0-1.1-0.9-2-2-2h-3.17l-1.83-2zm3 15c-2.76 0-5-2.24-5-5s2.24-5 5-5 5 2.24 5 5-2.24 5-5 5z"/>
  </g>
 </g>
</svg>
