<?xml version="1.0" encoding="UTF-8" standalone="no"?>
<svg
   xmlns:dc="http://purl.org/dc/elements/1.1/"
   xmlns:cc="http://creativecommons.org/ns#"
   xmlns:rdf="http://www.w3.org/1999/02/22-rdf-syntax-ns#"
   xmlns:svg="http://www.w3.org/2000/svg"
   xmlns="http://www.w3.org/2000/svg"
   xmlns:sodipodi="http://sodipodi.sourceforge.net/DTD/sodipodi-0.dtd"
   xmlns:inkscape="http://www.inkscape.org/namespaces/inkscape"
   width="31.999987"
   height="32.000237"
   viewBox="0 0 8.4666627 8.4667291"
   version="1.1"
   id="svg8"
   inkscape:version="1.0.2 (1.0.2+r75+1)"
   sodipodi:docname="chart.svg">
  <defs
     id="defs2">
    <symbol
       viewBox="0 0 24 24"
       id="ic_room_24px">
      <path
         d="M 12,2 C 8.13,2 5,5.13 5,9 c 0,5.25 7,13 7,13 0,0 7,-7.75 7,-13 0,-3.87 -3.13,-7 -7,-7 z m 0,9.5 a 2.5,2.5 0 0 1 0,-5 2.5,2.5 0 0 1 0,5 z"
         id="path456" />
    </symbol>
    <symbol
       viewBox="0 0 24 24"
       id="ic_play_circle_filled_24px">
      <path
         d="M 12,2 C 6.48,2 2,6.48 2,12 2,17.52 6.48,22 12,22 17.52,22 22,17.52 22,12 22,6.48 17.52,2 12,2 Z m -2,14.5 v -9 l 6,4.5 z"
         id="path2760" />
    </symbol>
    <symbol
       viewBox="0 0 24 24"
       id="ic_wallpaper_24px">
      <path
         d="m 4,4 h 7 V 2 H 4 C 2.9,2 2,2.9 2,4 v 7 h 2 z m 6,9 -4,5 h 12 l -3,-4 -2.03,2.71 z M 17,8.5 C 17,7.67 16.33,7 15.5,7 14.67,7 14,7.67 14,8.5 14,9.33 14.67,10 15.5,10 16.33,10 17,9.33 17,8.5 Z M 20,2 h -7 v 2 h 7 v 7 h 2 V 4 C 22,2.9 21.1,2 20,2 Z m 0,18 h -7 v 2 h 7 c 1.1,0 2,-0.9 2,-2 V 13 H 20 Z M 4,13 H 2 v 7 c 0,1.1 0.9,2 2,2 h 7 V 20 H 4 Z"
         id="path3886" />
    </symbol>
    <symbol
       viewBox="0 0 24 24"
       id="ic_person_24px">
      <path
         d="m 12,12 c 2.21,0 4,-1.79 4,-4 C 16,5.79 14.21,4 12,4 9.79,4 8,5.79 8,8 c 0,2.21 1.79,4 4,4 z m 0,2 c -2.67,0 -8,1.34 -8,4 v 2 h 16 v -2 c 0,-2.66 -5.33,-4 -8,-4 z"
         id="path6668" />
    </symbol>
    <symbol
       id="icon-chart"
       viewBox="0 0 1022 1024">
      <title
         id="title9020">chart</title>
      <path
         d="m 439.712,620.736 -320.256,-320 c -159.264,184.128 -159.264,455.904 0,640 z m 200.32,-487.68 V 601.728 L 308.768,933.12 C 383.264,988.736 473.76,1024 573.76,1024 822.496,1024 1024,822.752 1024,574.112 1024.032,348.256 856.576,165.248 640.032,133.056 Z M 512,512.512 V 0 C 372.512,8.64 246.496,62.016 144.736,145.184 Z"
         id="path9022" />
    </symbol>
  </defs>
  <sodipodi:namedview
     id="base"
     pagecolor="#ffffff"
     bordercolor="#666666"
     borderopacity="1.0"
     inkscape:pageopacity="0.0"
     inkscape:pageshadow="2"
     inkscape:zoom="7.9195959"
     inkscape:cx="-26.785433"
     inkscape:cy="-0.095691214"
     inkscape:document-units="px"
     inkscape:current-layer="layer1"
     showgrid="false"
     units="px"
     inkscape:document-rotation="0"
     fit-margin-top="0"
     fit-margin-left="0"
     fit-margin-right="0"
     fit-margin-bottom="0" />
  <metadata
     id="metadata5">
    <rdf:RDF>
      <cc:Work
         rdf:about="">
        <dc:format>image/svg+xml</dc:format>
        <dc:type
           rdf:resource="http://purl.org/dc/dcmitype/StillImage" />
        <dc:title></dc:title>
        <dc:creator>
          <cc:Agent>
            <dc:title>Artur S</dc:title>
          </cc:Agent>
        </dc:creator>
      </cc:Work>
    </rdf:RDF>
  </metadata>
  <g
     inkscape:label="Layer 1"
     inkscape:groupmode="layer"
     id="layer1"
     transform="translate(656.22051,-266.60548)"
     style="display:inline">
    <g
       id="use9712"
       style="fill:#ffffff;stroke:none;fill-opacity:0.27058825"
       transform="matrix(0.00826829,0,0,0.00826829,-656.22058,266.60548)">
      <title
         id="title9726">chart</title>
      <path
         d="m 439.712,620.736 -320.256,-320 c -159.264,184.128 -159.264,455.904 0,640 z m 200.32,-487.68 V 601.728 L 308.768,933.12 C 383.264,988.736 473.76,1024 573.76,1024 822.496,1024 1024,822.752 1024,574.112 1024.032,348.256 856.576,165.248 640.032,133.056 Z M 512,512.512 V 0 C 372.512,8.64 246.496,62.016 144.736,145.184 Z"
         id="path9728"
         style="fill:#ffffff;fill-opacity:0.27058825" />
    </g>
  </g>
</svg>
