<?xml version="1.0" encoding="UTF-8" standalone="no"?>
<svg
   xmlns:dc="http://purl.org/dc/elements/1.1/"
   xmlns:cc="http://creativecommons.org/ns#"
   xmlns:rdf="http://www.w3.org/1999/02/22-rdf-syntax-ns#"
   xmlns:svg="http://www.w3.org/2000/svg"
   xmlns="http://www.w3.org/2000/svg"
   xmlns:sodipodi="http://sodipodi.sourceforge.net/DTD/sodipodi-0.dtd"
   xmlns:inkscape="http://www.inkscape.org/namespaces/inkscape"
   width="32.000015"
   height="32.153275"
   viewBox="0 0 8.4666702 8.5072204"
   version="1.1"
   id="svg8"
   inkscape:version="1.0.2 (1.0.2+r75+1)"
   sodipodi:docname="image.svg">
  <defs
     id="defs2">
    <symbol
       viewBox="0 0 24 24"
       id="ic_room_24px">
      <path
         d="M 12,2 C 8.13,2 5,5.13 5,9 c 0,5.25 7,13 7,13 0,0 7,-7.75 7,-13 0,-3.87 -3.13,-7 -7,-7 z m 0,9.5 a 2.5,2.5 0 0 1 0,-5 2.5,2.5 0 0 1 0,5 z"
         id="path456" />
    </symbol>
    <symbol
       viewBox="0 0 24 24"
       id="ic_play_circle_filled_24px">
      <path
         d="M 12,2 C 6.48,2 2,6.48 2,12 2,17.52 6.48,22 12,22 17.52,22 22,17.52 22,12 22,6.48 17.52,2 12,2 Z m -2,14.5 v -9 l 6,4.5 z"
         id="path2760" />
    </symbol>
    <symbol
       viewBox="0 0 24 24"
       id="ic_wallpaper_24px">
      <path
         d="m 4,4 h 7 V 2 H 4 C 2.9,2 2,2.9 2,4 v 7 h 2 z m 6,9 -4,5 h 12 l -3,-4 -2.03,2.71 z M 17,8.5 C 17,7.67 16.33,7 15.5,7 14.67,7 14,7.67 14,8.5 14,9.33 14.67,10 15.5,10 16.33,10 17,9.33 17,8.5 Z M 20,2 h -7 v 2 h 7 v 7 h 2 V 4 C 22,2.9 21.1,2 20,2 Z m 0,18 h -7 v 2 h 7 c 1.1,0 2,-0.9 2,-2 V 13 H 20 Z M 4,13 H 2 v 7 c 0,1.1 0.9,2 2,2 h 7 V 20 H 4 Z"
         id="path3886" />
    </symbol>
  </defs>
  <sodipodi:namedview
     id="base"
     pagecolor="#ffffff"
     bordercolor="#666666"
     borderopacity="1.0"
     inkscape:pageopacity="0.0"
     inkscape:pageshadow="2"
     inkscape:zoom="7.9195959"
     inkscape:cx="-40.20598"
     inkscape:cy="20.358236"
     inkscape:document-units="px"
     inkscape:current-layer="layer1"
     showgrid="false"
     units="px"
     inkscape:document-rotation="0"
     fit-margin-top="0"
     fit-margin-left="0"
     fit-margin-right="0"
     fit-margin-bottom="0" />
  <metadata
     id="metadata5">
    <rdf:RDF>
      <cc:Work
         rdf:about="">
        <dc:format>image/svg+xml</dc:format>
        <dc:type
           rdf:resource="http://purl.org/dc/dcmitype/StillImage" />
        <dc:title></dc:title>
        <dc:creator>
          <cc:Agent>
            <dc:title>Artur S</dc:title>
          </cc:Agent>
        </dc:creator>
      </cc:Work>
    </rdf:RDF>
  </metadata>
  <g
     inkscape:label="Layer 1"
     inkscape:groupmode="layer"
     id="layer1"
     transform="translate(661.5032,-261.02213)"
     style="display:inline">
    <path
       id="path4478"
       style="fill:#ffffff;fill-opacity:0.27058801;stroke-width:24.8178;stroke-linecap:round;paint-order:fill markers stroke"
       inkscape:transform-center-x="3.134055e-05"
       inkscape:transform-center-y="-0.35352175"
       d="m -660.72512,261.02213 c -0.431,0 -0.77808,0.3475 -0.77808,0.77808 v 6.95106 c 0,0.43101 0.34752,0.77808 0.77808,0.77808 h 6.91051 c 0.431,0 0.77808,-0.34757 0.77808,-0.77808 v -6.95106 c 0,-0.43101 -0.34751,-0.77808 -0.77808,-0.77808 z m 0.65272,0.8002 h 5.61246 c 0.34967,0 0.63059,0.28021 0.63059,0.63058 v 5.64566 c 0,0.34966 -0.28021,0.63058 -0.63059,0.63058 h -5.61246 c -0.34967,0 -0.63427,-0.2802 -0.63427,-0.63058 v -5.64566 c 0,-0.34966 0.2846,-0.63058 0.63427,-0.63058 z m 4.23331,1.29434 a 0.62452446,0.62452446 0 0 0 -0.6232,0.6232 0.62452446,0.62452446 0 0 0 0.6232,0.62688 0.62452446,0.62452446 0 0 0 0.62688,-0.62688 0.62452446,0.62452446 0 0 0 -0.62688,-0.6232 z m -2.32317,2.50017 c -0.017,0 -0.81408,1.05503 -0.82232,1.06571 -0.008,0.0108 -0.83056,1.05872 -0.82233,1.06939 0.008,0.0108 1.62819,0 1.64465,0 0.009,0 0.43015,-10e-4 0.85184,0 0.3943,0.001 0.79252,0.005 0.79651,0 0.21548,-10e-4 0.45998,0 0.46462,0 0.0132,0 1.25853,0.008 1.26486,0 0.006,-0.008 -0.62426,-0.82141 -0.63059,-0.8297 -0.006,-0.008 -0.62163,-0.82602 -0.63427,-0.82602 -0.0132,0 -0.62424,0.81773 -0.63056,0.82602 -0.002,0.003 -0.12499,0.16605 -0.23601,0.30976 -0.21083,-0.27085 -0.41616,-0.54398 -0.42039,-0.54945 -0.008,-0.0108 -0.80955,-1.06571 -0.82601,-1.06571 z" />
  </g>
</svg>
