<?xml version="1.0" encoding="UTF-8"?>
<svg width="32" height="32.153" version="1.1" viewBox="0 0 8.4667 8.5072" xmlns="http://www.w3.org/2000/svg">
 <g transform="translate(661.5 -261.02)">
  <path d="m-660.73 261.02c-0.431 0-0.77808 0.3475-0.77808 0.77808v6.9511c0 0.43101 0.34752 0.77808 0.77808 0.77808h6.9105c0.431 0 0.77808-0.34757 0.77808-0.77808v-6.9511c0-0.43101-0.34751-0.77808-0.77808-0.77808zm0.65272 0.8002h5.6125c0.34967 0 0.63059 0.28021 0.63059 0.63058v5.6457c0 0.34966-0.28021 0.63058-0.63059 0.63058h-5.6125c-0.34967 0-0.63427-0.2802-0.63427-0.63058v-5.6457c0-0.34966 0.2846-0.63058 0.63427-0.63058zm4.2333 1.2943a0.62452 0.62452 0 0 0-0.6232 0.6232 0.62452 0.62452 0 0 0 0.6232 0.62688 0.62452 0.62452 0 0 0 0.62688-0.62688 0.62452 0.62452 0 0 0-0.62688-0.6232zm-2.3232 2.5002c-0.017 0-0.81408 1.055-0.82232 1.0657-8e-3 0.0108-0.83056 1.0587-0.82233 1.0694 8e-3 0.0108 1.6282 0 1.6446 0 9e-3 0 0.43015-1e-3 0.85184 0 0.3943 1e-3 0.79252 5e-3 0.79651 0 0.21548-1e-3 0.45998 0 0.46462 0 0.0132 0 1.2585 8e-3 1.2649 0 6e-3 -8e-3 -0.62426-0.82141-0.63059-0.8297-6e-3 -8e-3 -0.62163-0.82602-0.63427-0.82602-0.0132 0-0.62424 0.81773-0.63056 0.82602-2e-3 3e-3 -0.12499 0.16605-0.23601 0.30976-0.21083-0.27085-0.41616-0.54398-0.42039-0.54945-8e-3 -0.0108-0.80955-1.0657-0.82601-1.0657z" fill="#fff" fill-opacity=".27059" stroke-linecap="round" stroke-width="24.818" style="paint-order:fill markers stroke"/>
 </g>
</svg>
