<?xml version="1.0" encoding="UTF-8"?>
<svg width="32" height="28.8" version="1.1" viewBox="0 0 8.4667 7.62" xmlns="http://www.w3.org/2000/svg">
 <g transform="translate(-126.16 -202.46)">
  <path id="blank_image_icon" transform="matrix(.26458 0 0 .26458 126.16 202.46)" d="m11.199 0-2.9277 3.1992h-5.0723c-1.76 0-3.1992 1.4412-3.1992 3.2012v19.199c0 1.76 1.4392 3.2012 3.1992 3.2012h25.602c1.76 0 3.1992-1.4412 3.1992-3.2012v-19.199c0-1.76-1.4392-3.2012-3.1992-3.2012h-5.0723l-2.9277-3.1992h-9.6016zm4.8008 8c4.416 0 8 3.584 8 8s-3.584 8-8 8-8-3.584-8-8 3.584-8 8-8zm-0.050781 2.8809a5.12 5.12 0 0 0-5.0684 5.1191 5.12 5.12 0 0 0 5.1191 5.1191 5.12 5.12 0 0 0 5.1191-5.1191 5.12 5.12 0 0 0-5.1191-5.1191 5.12 5.12 0 0 0-0.050781 0z" fill="#fff" fill-opacity=".26878"/>
 </g>
</svg>
