<?xml version="1.0" encoding="UTF-8"?>
<svg width="32" height="32" version="1.1" viewBox="0 0 8.4667 8.4667" xmlns="http://www.w3.org/2000/svg">
 <g transform="translate(-15.901 -181.35)">
  <path id="blank_image_icon" d="m18.441 188.12c-0.46565 0-0.8424 0.38099-0.8424 0.84664s0.37675 0.84663 0.8424 0.84663c0.46565 0 0.84664-0.38098 0.84664-0.84663s-0.38099-0.84664-0.84664-0.84664zm-2.5399-6.7731v0.84664h0.84664l1.5239 3.213-0.57148 1.0371c-0.06773 0.11853-0.10583 0.25822-0.10583 0.40638 0 0.46565 0.38099 0.84664 0.84664 0.84664h5.0798v-0.84664h-4.902c-0.05926 0-0.10583-0.0466-0.10583-0.10583l0.0127-0.0508 0.38099-0.69001h3.1537c0.31749 0 0.59688-0.17356 0.74081-0.43601l1.5155-2.7473a0.42459 0.42459 0 0 0-0.37252-0.62651h-6.2609l-0.39792-0.84664zm6.7731 6.7731c-0.46565 0-0.8424 0.38099-0.8424 0.84664s0.37675 0.84663 0.8424 0.84663c0.46565 0 0.84664-0.38098 0.84664-0.84663s-0.38099-0.84664-0.84664-0.84664z" fill="#fff" fill-opacity=".27059"/>
 </g>
</svg>
