<?xml version="1.0" encoding="UTF-8" standalone="no"?>
<svg
   xmlns:dc="http://purl.org/dc/elements/1.1/"
   xmlns:cc="http://creativecommons.org/ns#"
   xmlns:rdf="http://www.w3.org/1999/02/22-rdf-syntax-ns#"
   xmlns:svg="http://www.w3.org/2000/svg"
   xmlns="http://www.w3.org/2000/svg"
   xmlns:sodipodi="http://sodipodi.sourceforge.net/DTD/sodipodi-0.dtd"
   xmlns:inkscape="http://www.inkscape.org/namespaces/inkscape"
   width="32"
   height="32"
   viewBox="0 0 8.4666664 8.4666667"
   version="1.1"
   id="svg8"
   inkscape:version="1.0.2 (1.0.2+r75+1)"
   sodipodi:docname="cart.svg">
  <defs
     id="defs2">
    <symbol
       viewBox="0 0 24 24"
       id="ic_favorite_border_24px">
      <path
         d="M 16.5,3 C 14.76,3 13.09,3.81 12,5.09 10.91,3.81 9.24,3 7.5,3 4.42,3 2,5.42 2,8.5 c 0,3.78 3.4,6.86 8.55,11.54 L 12,21.35 13.45,20.03 C 18.6,15.36 22,12.28 22,8.5 22,5.42 19.58,3 16.5,3 Z m -4.4,15.55 -0.1,0.1 -0.1,-0.1 C 7.14,14.24 4,11.39 4,8.5 4,6.5 5.5,5 7.5,5 c 1.54,0 3.04,0.99 3.57,2.36 h 1.87 C 13.46,5.99 14.96,5 16.5,5 c 2,0 3.5,1.5 3.5,3.5 0,2.89 -3.14,5.74 -7.9,10.05 z"
         id="path3477" />
    </symbol>
    <symbol
       viewBox="0 0 24 24"
       id="ic_shopping_cart_24px">
      <path
         d="m 7,18 c -1.1,0 -1.99,0.9 -1.99,2 0,1.1 0.89,2 1.99,2 1.1,0 2,-0.9 2,-2 C 9,18.9 8.1,18 7,18 Z M 1,2 v 2 h 2 l 3.6,7.59 -1.35,2.45 C 5.09,14.32 5,14.65 5,15 c 0,1.1 0.9,2 2,2 H 19 V 15 H 7.42 C 7.28,15 7.17,14.89 7.17,14.75 L 7.2,14.63 8.1,13 h 7.45 c 0.75,0 1.41,-0.41 1.75,-1.03 L 20.88,5.48 A 1.003,1.003 0 0 0 20,4 H 5.21 L 4.27,2 Z m 16,16 c -1.1,0 -1.99,0.9 -1.99,2 0,1.1 0.89,2 1.99,2 1.1,0 2,-0.9 2,-2 0,-1.1 -0.9,-2 -2,-2 z"
         id="path3796" />
    </symbol>
  </defs>
  <sodipodi:namedview
     id="base"
     pagecolor="#ffffff"
     bordercolor="#666666"
     borderopacity="1.0"
     inkscape:pageopacity="0.0"
     inkscape:pageshadow="2"
     inkscape:zoom="7.9195959"
     inkscape:cx="20.338722"
     inkscape:cy="11.292204"
     inkscape:document-units="px"
     inkscape:current-layer="layer1"
     showgrid="false"
     units="px"
     inkscape:document-rotation="0"
     fit-margin-top="0"
     fit-margin-left="0"
     fit-margin-right="0"
     fit-margin-bottom="0" />
  <metadata
     id="metadata5">
    <rdf:RDF>
      <cc:Work
         rdf:about="">
        <dc:format>image/svg+xml</dc:format>
        <dc:type
           rdf:resource="http://purl.org/dc/dcmitype/StillImage" />
        <dc:title></dc:title>
        <dc:creator>
          <cc:Agent>
            <dc:title>Artur S</dc:title>
          </cc:Agent>
        </dc:creator>
      </cc:Work>
    </rdf:RDF>
  </metadata>
  <g
     inkscape:label="Layer 1"
     inkscape:groupmode="layer"
     id="layer1"
     transform="translate(-15.900849,-181.35121)"
     style="display:inline">
    <path
       d="m 18.440762,188.12446 c -0.465651,0 -0.842405,0.38099 -0.842405,0.84664 0,0.46565 0.376754,0.84663 0.842405,0.84663 0.46565,0 0.846637,-0.38098 0.846637,-0.84663 0,-0.46565 -0.380987,-0.84664 -0.846637,-0.84664 z m -2.539913,-6.7731 v 0.84664 h 0.846637 l 1.523948,3.21298 -0.57148,1.03714 c -0.06773,0.11853 -0.10583,0.25822 -0.10583,0.40638 0,0.46565 0.380987,0.84664 0.846638,0.84664 h 5.079825 v -0.84664 h -4.902032 c -0.05926,0 -0.105829,-0.0466 -0.105829,-0.10583 l 0.0127,-0.0508 0.380987,-0.69001 h 3.153725 c 0.317489,0 0.59688,-0.17356 0.740808,-0.43601 l 1.515482,-2.74734 A 0.42458876,0.42458876 0 0 0 23.943907,182.198 h -6.260885 l -0.39792,-0.84664 z m 6.773101,6.7731 c -0.465651,0 -0.842405,0.38099 -0.842405,0.84664 0,0.46565 0.376754,0.84663 0.842405,0.84663 0.46565,0 0.846637,-0.38098 0.846637,-0.84663 0,-0.46565 -0.380987,-0.84664 -0.846637,-0.84664 z"
       id="blank_image_icon"
       style="fill:#ffffff;stroke:none;stroke-width:0.423319;fill-opacity:0.27058825" />
  </g>
</svg>
