<?xml version="1.0" encoding="UTF-8" standalone="no"?>
<svg
   xmlns:dc="http://purl.org/dc/elements/1.1/"
   xmlns:cc="http://creativecommons.org/ns#"
   xmlns:rdf="http://www.w3.org/1999/02/22-rdf-syntax-ns#"
   xmlns:svg="http://www.w3.org/2000/svg"
   xmlns="http://www.w3.org/2000/svg"
   xmlns:sodipodi="http://sodipodi.sourceforge.net/DTD/sodipodi-0.dtd"
   xmlns:inkscape="http://www.inkscape.org/namespaces/inkscape"
   width="32"
   height="32"
   viewBox="0 0 8.4666664 8.4666667"
   version="1.1"
   id="svg8"
   inkscape:version="1.0.2 (1.0.2+r75+1)"
   sodipodi:docname="heart.svg">
  <defs
     id="defs2">
    <symbol
       viewBox="0 0 24 24"
       id="ic_favorite_border_24px">
      <path
         d="M 16.5,3 C 14.76,3 13.09,3.81 12,5.09 10.91,3.81 9.24,3 7.5,3 4.42,3 2,5.42 2,8.5 c 0,3.78 3.4,6.86 8.55,11.54 L 12,21.35 13.45,20.03 C 18.6,15.36 22,12.28 22,8.5 22,5.42 19.58,3 16.5,3 Z m -4.4,15.55 -0.1,0.1 -0.1,-0.1 C 7.14,14.24 4,11.39 4,8.5 4,6.5 5.5,5 7.5,5 c 1.54,0 3.04,0.99 3.57,2.36 h 1.87 C 13.46,5.99 14.96,5 16.5,5 c 2,0 3.5,1.5 3.5,3.5 0,2.89 -3.14,5.74 -7.9,10.05 z"
         id="path3477" />
    </symbol>
  </defs>
  <sodipodi:namedview
     id="base"
     pagecolor="#ffffff"
     bordercolor="#666666"
     borderopacity="1.0"
     inkscape:pageopacity="0.0"
     inkscape:pageshadow="2"
     inkscape:zoom="0.98994949"
     inkscape:cx="108.05302"
     inkscape:cy="35.742664"
     inkscape:document-units="px"
     inkscape:current-layer="layer1"
     showgrid="false"
     units="px"
     inkscape:document-rotation="0"
     fit-margin-top="0"
     fit-margin-left="0"
     fit-margin-right="0"
     fit-margin-bottom="0" />
  <metadata
     id="metadata5">
    <rdf:RDF>
      <cc:Work
         rdf:about="">
        <dc:format>image/svg+xml</dc:format>
        <dc:type
           rdf:resource="http://purl.org/dc/dcmitype/StillImage" />
        <dc:title></dc:title>
        <dc:creator>
          <cc:Agent>
            <dc:title>Artur S</dc:title>
          </cc:Agent>
        </dc:creator>
      </cc:Work>
    </rdf:RDF>
  </metadata>
  <g
     inkscape:label="Layer 1"
     inkscape:groupmode="layer"
     id="layer1"
     transform="translate(-16.449382,-181.26156)"
     style="display:inline">
    <path
       d="m 22.587715,181.61081 c -0.7366,0 -1.443566,0.3429 -1.905,0.88477 -0.461433,-0.54187 -1.1684,-0.88477 -1.905,-0.88477 -1.303866,0 -2.328333,1.02447 -2.328333,2.32833 0,1.6002 1.439333,2.90407 3.6195,4.88527 l 0.613833,0.55457 0.613834,-0.55881 c 2.180166,-1.97696 3.6195,-3.28083 3.6195,-4.88103 0,-1.30386 -1.024467,-2.32833 -2.328334,-2.32833 z m -1.862666,6.58283 -0.04233,0.0423 -0.04233,-0.0423 c -2.015067,-1.82456 -3.344333,-3.03106 -3.344333,-4.2545 0,-0.84666 0.635,-1.48167 1.481666,-1.48167 0.651934,0 1.286934,0.41911 1.5113,0.99907 h 0.791634 c 0.220133,-0.57996 0.855133,-0.99907 1.507066,-0.99907 0.846667,0 1.481667,0.63501 1.481667,1.48167 0,1.22344 -1.329267,2.42994 -3.344333,4.2545 z"
       id="blank_image_icon"
       style="fill:#ffffff;stroke:none;stroke-width:0.423334;fill-opacity:0.27058825" />
  </g>
</svg>
