<?xml version="1.0" encoding="UTF-8"?>
<svg width="32" height="32" version="1.1" viewBox="0 0 8.4667 8.4667" xmlns="http://www.w3.org/2000/svg">
 <g transform="translate(-16.449 -181.26)">
  <path id="blank_image_icon" d="m22.588 181.61c-0.7366 0-1.4436 0.3429-1.905 0.88477-0.46143-0.54187-1.1684-0.88477-1.905-0.88477-1.3039 0-2.3283 1.0245-2.3283 2.3283 0 1.6002 1.4393 2.9041 3.6195 4.8853l0.61383 0.55457 0.61383-0.55881c2.1802-1.977 3.6195-3.2808 3.6195-4.881 0-1.3039-1.0245-2.3283-2.3283-2.3283zm-1.8627 6.5828-0.04233 0.0423-0.04233-0.0423c-2.0151-1.8246-3.3443-3.0311-3.3443-4.2545 0-0.84666 0.635-1.4817 1.4817-1.4817 0.65193 0 1.2869 0.41911 1.5113 0.99907h0.79163c0.22013-0.57996 0.85513-0.99907 1.5071-0.99907 0.84667 0 1.4817 0.63501 1.4817 1.4817 0 1.2234-1.3293 2.4299-3.3443 4.2545z" fill="#fff" fill-opacity=".27059"/>
 </g>
</svg>
