<?xml version="1.0" encoding="UTF-8" standalone="no"?>
<svg
   xmlns:dc="http://purl.org/dc/elements/1.1/"
   xmlns:cc="http://creativecommons.org/ns#"
   xmlns:rdf="http://www.w3.org/1999/02/22-rdf-syntax-ns#"
   xmlns:svg="http://www.w3.org/2000/svg"
   xmlns="http://www.w3.org/2000/svg"
   xmlns:sodipodi="http://sodipodi.sourceforge.net/DTD/sodipodi-0.dtd"
   xmlns:inkscape="http://www.inkscape.org/namespaces/inkscape"
   width="32"
   height="32"
   viewBox="0 0 8.4666663 8.4666667"
   version="1.1"
   id="svg8"
   inkscape:version="1.0.2 (1.0.2+r75+1)"
   sodipodi:docname="hourglass.svg">
  <defs
     id="defs2">
    <symbol
       viewBox="0 0 24 24"
       id="ic_hourglass_empty_24px">
      <path
         d="M 6,2 V 8 H 6.01 L 6,8.01 10,12 6,16 6.01,16.01 H 6 V 22 H 18 V 16.01 H 17.99 L 18,16 14,12 18,8.01 17.99,8 H 18 V 2 Z M 16,16.5 V 20 H 8 v -3.5 l 4,-4 z m -4,-5 -4,-4 V 4 h 8 v 3.5 z"
         id="path3537" />
    </symbol>
  </defs>
  <sodipodi:namedview
     id="base"
     pagecolor="#ffffff"
     bordercolor="#666666"
     borderopacity="1.0"
     inkscape:pageopacity="0.0"
     inkscape:pageshadow="2"
     inkscape:zoom="11.2"
     inkscape:cx="20.498509"
     inkscape:cy="18.231059"
     inkscape:document-units="px"
     inkscape:current-layer="layer1"
     showgrid="false"
     units="px"
     inkscape:document-rotation="0"
     fit-margin-top="0"
     fit-margin-left="0"
     fit-margin-right="0"
     fit-margin-bottom="0" />
  <metadata
     id="metadata5">
    <rdf:RDF>
      <cc:Work
         rdf:about="">
        <dc:format>image/svg+xml</dc:format>
        <dc:type
           rdf:resource="http://purl.org/dc/dcmitype/StillImage" />
        <dc:title></dc:title>
        <dc:creator>
          <cc:Agent>
            <dc:title>Artur S</dc:title>
          </cc:Agent>
        </dc:creator>
      </cc:Work>
    </rdf:RDF>
  </metadata>
  <g
     inkscape:label="Layer 1"
     inkscape:groupmode="layer"
     id="layer1"
     transform="translate(-65.734451,-155.99684)"
     style="display:inline">
    <g
       id="sddsda12kr"
       style="fill:#000000;stroke:none"
       transform="matrix(0.42333333,0,0,0.42333333,64.887784,155.15017)">
      <path
         d="M 6,2 V 8 H 6.01 L 6,8.01 10,12 6,16 6.01,16.01 H 6 V 22 H 18 V 16.01 H 17.99 L 18,16 14,12 18,8.01 17.99,8 H 18 V 2 Z M 16,16.5 V 20 H 8 v -3.5 l 4,-4 z m -4,-5 -4,-4 V 4 h 8 v 3.5 z"
         id="blank_image_icon"
         style="fill:#ffffff;fill-opacity:0.27058825" />
    </g>
  </g>
</svg>
