<?xml version="1.0" encoding="UTF-8" standalone="no"?>
<svg
   xmlns:dc="http://purl.org/dc/elements/1.1/"
   xmlns:cc="http://creativecommons.org/ns#"
   xmlns:rdf="http://www.w3.org/1999/02/22-rdf-syntax-ns#"
   xmlns:svg="http://www.w3.org/2000/svg"
   xmlns="http://www.w3.org/2000/svg"
   xmlns:sodipodi="http://sodipodi.sourceforge.net/DTD/sodipodi-0.dtd"
   xmlns:inkscape="http://www.inkscape.org/namespaces/inkscape"
   width="31.999998"
   height="32"
   viewBox="0 0 8.4666658 8.4666667"
   version="1.1"
   id="svg8"
   inkscape:version="1.0.2 (1.0.2+r75+1)"
   sodipodi:docname="store.svg">
  <defs
     id="defs2">
    <symbol
       viewBox="0 0 24 24"
       id="ic_hourglass_empty_24px">
      <path
         d="M 6,2 V 8 H 6.01 L 6,8.01 10,12 6,16 6.01,16.01 H 6 V 22 H 18 V 16.01 H 17.99 L 18,16 14,12 18,8.01 17.99,8 H 18 V 2 Z M 16,16.5 V 20 H 8 v -3.5 l 4,-4 z m -4,-5 -4,-4 V 4 h 8 v 3.5 z"
         id="path3537" />
    </symbol>
    <symbol
       viewBox="0 0 24 24"
       id="ic_store_24px">
      <path
         d="M 20,4 H 4 v 2 h 16 z m 1,10 V 12 L 20,7 H 4 l -1,5 v 2 h 1 v 6 h 10 v -6 h 4 v 6 h 2 v -6 z m -9,4 H 6 v -4 h 6 z"
         id="path3811" />
    </symbol>
  </defs>
  <sodipodi:namedview
     id="base"
     pagecolor="#ffffff"
     bordercolor="#666666"
     borderopacity="1.0"
     inkscape:pageopacity="0.0"
     inkscape:pageshadow="2"
     inkscape:zoom="7.9195959"
     inkscape:cx="7.05858"
     inkscape:cy="13.504271"
     inkscape:document-units="px"
     inkscape:current-layer="layer1"
     showgrid="false"
     units="px"
     inkscape:document-rotation="0"
     fit-margin-top="0"
     fit-margin-left="0"
     fit-margin-right="0"
     fit-margin-bottom="0" />
  <metadata
     id="metadata5">
    <rdf:RDF>
      <cc:Work
         rdf:about="">
        <dc:format>image/svg+xml</dc:format>
        <dc:type
           rdf:resource="http://purl.org/dc/dcmitype/StillImage" />
        <dc:title></dc:title>
        <dc:creator>
          <cc:Agent>
            <dc:title>Artur S</dc:title>
          </cc:Agent>
        </dc:creator>
      </cc:Work>
    </rdf:RDF>
  </metadata>
  <g
     inkscape:label="Layer 1"
     inkscape:groupmode="layer"
     id="layer1"
     transform="translate(-68.485171,-159.38425)"
     style="display:inline">
    <path
       d="M 76.246278,160.08982 H 69.19073 v 0.88191 h 7.055548 z m 0.440976,4.40971 v -0.88195 L 76.246278,161.4127 H 69.19073 l -0.440976,2.20488 v 0.88195 h 0.440976 v 2.64581 h 4.409721 v -2.64581 h 1.763885 v 2.64581 h 0.881942 v -2.64581 z m -3.96875,1.76386 h -2.645827 v -1.76386 h 2.645827 z"
       id="blank_image_icon"
       style="fill:#ffffff;fill-opacity:0.27058801;stroke:none;stroke-width:0.440972" />
  </g>
</svg>
